<svg width="12" height="12" viewBox="0 0 12 12" fill="none" class="sh-img " alt=""><path d="M5 6.08335L5.6154 6.75L7 5.25M4.6 10.5H7.4C7.96005 10.5 8.2401 10.5 8.454 10.391C8.64215 10.2951 8.79515 10.1422 8.891 9.954C9 9.7401 9 9.46005 9 8.9V3.1C9 2.53995 9 2.25992 8.891 2.04601C8.79515 1.85785 8.64215 1.70486 8.454 1.60899C8.2401 1.5 7.96005 1.5 7.4 1.5H4.6C4.03995 1.5 3.75992 1.5 3.54601 1.60899C3.35785 1.70486 3.20486 1.85785 3.10899 2.04601C3 2.25992 3 2.53994 3 3.1V8.9C3 9.46005 3 9.7401 3.10899 9.954C3.20486 10.1422 3.35785 10.2951 3.54601 10.391C3.75992 10.5 4.03994 10.5 4.6 10.5Z" stroke="white" stroke-linecap="round" stroke-linejoin="round"></path></svg>