<svg fill="none" viewBox="12 10 59 59" class="whatsapp-icon"><g filter="url(#filter0_d_496_54)"><path d="M42 12C57.464 12 70 24.536 70 40C70 55.464 57.464 68 42 68C37.0255 68 32.3553 66.7004 28.3066 64.4258L14.7598 67.0938L18.2373 54.8125C15.5532 50.5157 14 45.4396 14 40C14 24.536 26.536 12 42 12Z" fill="#2AA81A"></path><path d="M41.5 10C57.7924 10 71 23.2076 71 39.5C71 55.7924 57.7924 69 41.5 69C39.5727 69 36.5485 68.7663 33.666 68.0566C32.2229 67.7013 30.77 67.2161 29.4932 66.5537C28.7918 66.1899 28.1169 65.7577 27.5195 65.2441L14.8145 67.9668L12.4385 68.4756L13.0479 66.124L16.2266 53.8594C14.6536 51.9953 13.6689 49.5456 13.0518 47.252C12.2629 44.3199 12 41.3621 12 39.5C12 23.2076 25.2076 10 41.5 10ZM41.5 13C26.8645 13 15 24.8645 15 39.5C15 41.1378 15.2372 43.8298 15.9482 46.4727C16.6721 49.163 17.8158 51.5317 19.4375 52.8291L19.0771 53.2783L19.4521 53.376L16.5615 64.5234L28.1855 62.0332L28.2803 62.4785L28.748 62.168C29.1578 62.7826 29.8658 63.3671 30.875 63.8906C31.8751 64.4094 33.0854 64.8239 34.3838 65.1436C36.9845 65.7838 39.7607 66 41.5 66C56.1355 66 68 54.1355 68 39.5C68 24.8645 56.1355 13 41.5 13Z" fill="white"></path><mask id="path-3-outside-1_496_54" maskUnits="userSpaceOnUse" x="30.5" y="29.5" width="13" height="9" fill="black"><rect fill="white" x="30.5" y="29.5" width="13" height="9"></rect><path d="M30.9312 37.5V36.38L33.5577 33.9417C33.7824 33.727 33.9707 33.5337 34.1227 33.3619C34.2747 33.1868 34.3903 33.0167 34.4696 32.8515C34.5489 32.683 34.5885 32.5013 34.5885 32.3063C34.5885 32.0883 34.539 31.9016 34.4398 31.7463C34.3407 31.5911 34.2069 31.4705 34.0384 31.3846C33.8699 31.2987 33.6767 31.2557 33.4586 31.2557C33.2339 31.2557 33.0374 31.302 32.8689 31.3945C32.7004 31.4837 32.5699 31.6142 32.4774 31.786C32.3882 31.9545 32.3436 32.1577 32.3436 32.3955H30.8568C30.8568 31.9099 30.9658 31.4903 31.1839 31.1368C31.4053 30.78 31.7125 30.5041 32.1057 30.3092C32.5021 30.1142 32.9581 30.0168 33.4735 30.0168C33.9988 30.0168 34.458 30.1109 34.8512 30.2992C35.2443 30.4843 35.5499 30.742 35.768 31.0723C35.9861 31.3994 36.0951 31.7777 36.0951 32.2072C36.0951 32.4847 36.0406 32.759 35.9315 33.0299C35.8225 33.2975 35.6292 33.5981 35.3517 33.9318C35.0742 34.2622 34.681 34.657 34.1722 35.1163L33.0919 36.1718V36.2264H36.1942V37.5H30.9312ZM36.7294 36.2016V34.9775L39.807 30.1159H40.8675V31.8207H40.2381L38.2954 34.8933V34.9527H42.6813V36.2016H36.7294ZM40.2679 37.5V35.8299L40.2976 35.2798V30.1159H41.7645V37.5H40.2679Z"></path></mask><path d="M30.9312 37.5V36.38L33.5577 33.9417C33.7824 33.727 33.9707 33.5337 34.1227 33.3619C34.2747 33.1868 34.3903 33.0167 34.4696 32.8515C34.5489 32.683 34.5885 32.5013 34.5885 32.3063C34.5885 32.0883 34.539 31.9016 34.4398 31.7463C34.3407 31.5911 34.2069 31.4705 34.0384 31.3846C33.8699 31.2987 33.6767 31.2557 33.4586 31.2557C33.2339 31.2557 33.0374 31.302 32.8689 31.3945C32.7004 31.4837 32.5699 31.6142 32.4774 31.786C32.3882 31.9545 32.3436 32.1577 32.3436 32.3955H30.8568C30.8568 31.9099 30.9658 31.4903 31.1839 31.1368C31.4053 30.78 31.7125 30.5041 32.1057 30.3092C32.5021 30.1142 32.9581 30.0168 33.4735 30.0168C33.9988 30.0168 34.458 30.1109 34.8512 30.2992C35.2443 30.4843 35.5499 30.742 35.768 31.0723C35.9861 31.3994 36.0951 31.7777 36.0951 32.2072C36.0951 32.4847 36.0406 32.759 35.9315 33.0299C35.8225 33.2975 35.6292 33.5981 35.3517 33.9318C35.0742 34.2622 34.681 34.657 34.1722 35.1163L33.0919 36.1718V36.2264H36.1942V37.5H30.9312ZM36.7294 36.2016V34.9775L39.807 30.1159H40.8675V31.8207H40.2381L38.2954 34.8933V34.9527H42.6813V36.2016H36.7294ZM40.2679 37.5V35.8299L40.2976 35.2798V30.1159H41.7645V37.5H40.2679Z" fill="white"></path><path d="M30.9312 37.5H30.9068V37.5243H30.9312V37.5ZM30.9312 36.38L30.9146 36.3621L30.9068 36.3694V36.38H30.9312ZM33.5577 33.9417L33.5743 33.9596L33.5745 33.9593L33.5577 33.9417ZM34.1227 33.3619L34.1409 33.3781L34.1411 33.3779L34.1227 33.3619ZM34.4696 32.8515L34.4915 32.862L34.4916 32.8618L34.4696 32.8515ZM32.8689 31.3945L32.8803 31.416L32.8806 31.4158L32.8689 31.3945ZM32.4774 31.786L32.4559 31.7744L32.4558 31.7746L32.4774 31.786ZM32.3436 32.3955V32.4199H32.3679V32.3955H32.3436ZM30.8568 32.3955H30.8325V32.4199H30.8568V32.3955ZM31.1839 31.1368L31.1632 31.1239L31.1632 31.124L31.1839 31.1368ZM32.1057 30.3092L32.0949 30.2873L32.0949 30.2873L32.1057 30.3092ZM34.8512 30.2992L34.8407 30.3212L34.8408 30.3213L34.8512 30.2992ZM35.768 31.0723L35.7477 31.0858L35.7477 31.0859L35.768 31.0723ZM35.9315 33.0299L35.9541 33.0391L35.9541 33.039L35.9315 33.0299ZM35.3517 33.9318L35.3704 33.9475L35.3704 33.9474L35.3517 33.9318ZM34.1722 35.1163L34.1559 35.0982L34.1552 35.0989L34.1722 35.1163ZM33.0919 36.1718L33.0749 36.1544L33.0675 36.1616V36.1718H33.0919ZM33.0919 36.2264H33.0675V36.2507H33.0919V36.2264ZM36.1942 36.2264H36.2185V36.202H36.1942V36.2264ZM36.1942 37.5V37.5243H36.2185V37.5H36.1942ZM30.9312 37.5H30.9555V36.38H30.9312H30.9068V37.5H30.9312ZM30.9312 36.38L30.9477 36.3978L33.5743 33.9596L33.5577 33.9417L33.5412 33.9239L30.9146 36.3621L30.9312 36.38ZM33.5577 33.9417L33.5745 33.9593C33.7995 33.7443 33.9884 33.5505 34.1409 33.3781L34.1227 33.3619L34.1044 33.3458C33.953 33.5169 33.7652 33.7097 33.5409 33.9241L33.5577 33.9417ZM34.1227 33.3619L34.1411 33.3779C34.2941 33.2015 34.4111 33.0296 34.4915 32.862L34.4696 32.8515L34.4476 32.8409C34.3695 33.0037 34.2552 33.1721 34.1043 33.346L34.1227 33.3619ZM34.4696 32.8515L34.4916 32.8618C34.5725 32.6899 34.6129 32.5047 34.6129 32.3063H34.5885H34.5642C34.5642 32.4979 34.5252 32.676 34.4476 32.8411L34.4696 32.8515ZM34.5885 32.3063H34.6129C34.6129 32.0845 34.5624 31.8931 34.4604 31.7332L34.4398 31.7463L34.4193 31.7594C34.5155 31.9101 34.5642 32.0921 34.5642 32.3063H34.5885ZM34.4398 31.7463L34.4604 31.7332C34.3589 31.5742 34.2217 31.4507 34.0495 31.3629L34.0384 31.3846L34.0274 31.4063C34.1921 31.4902 34.3226 31.6079 34.4193 31.7594L34.4398 31.7463ZM34.0384 31.3846L34.0495 31.3629C33.8771 31.275 33.6799 31.2314 33.4586 31.2314V31.2557V31.2801C33.6734 31.2801 33.8628 31.3223 34.0274 31.4063L34.0384 31.3846ZM33.4586 31.2557V31.2314C33.2305 31.2314 33.0298 31.2783 32.8571 31.3731L32.8689 31.3945L32.8806 31.4158C33.0449 31.3256 33.2373 31.2801 33.4586 31.2801V31.2557ZM32.8689 31.3945L32.8575 31.373C32.6846 31.4645 32.5507 31.5985 32.4559 31.7744L32.4774 31.786L32.4988 31.7975C32.5891 31.6299 32.7161 31.5029 32.8803 31.416L32.8689 31.3945ZM32.4774 31.786L32.4558 31.7746C32.3644 31.9474 32.3192 32.1547 32.3192 32.3955H32.3436H32.3679C32.3679 32.1607 32.4119 31.9616 32.4989 31.7974L32.4774 31.786ZM32.3436 32.3955V32.3712H30.8568V32.3955V32.4199H32.3436V32.3955ZM30.8568 32.3955H30.8812C30.8812 31.9136 30.9893 31.4986 31.2046 31.1496L31.1839 31.1368L31.1632 31.124C30.9424 31.482 30.8325 31.9061 30.8325 32.3955H30.8568ZM31.1839 31.1368L31.2046 31.1496C31.4234 30.7968 31.7272 30.524 32.1165 30.331L32.1057 30.3092L32.0949 30.2873C31.6978 30.4842 31.3871 30.7631 31.1632 31.1239L31.1839 31.1368ZM32.1057 30.3092L32.1164 30.331C32.509 30.138 32.9612 30.0411 33.4735 30.0411V30.0168V29.9924C32.955 29.9924 32.4953 30.0905 32.0949 30.2873L32.1057 30.3092ZM33.4735 30.0168V30.0411C33.9959 30.0411 34.4514 30.1347 34.8407 30.3212L34.8512 30.2992L34.8617 30.2773C34.4646 30.0871 34.0017 29.9924 33.4735 29.9924V30.0168ZM34.8512 30.2992L34.8408 30.3213C35.2303 30.5046 35.5323 30.7595 35.7477 31.0858L35.768 31.0723L35.7883 31.0589C35.5676 30.7245 35.2583 30.4639 34.8615 30.2772L34.8512 30.2992ZM35.768 31.0723L35.7477 31.0859C35.9629 31.4086 36.0707 31.7821 36.0707 32.2072H36.0951H36.1194C36.1194 31.7734 36.0092 31.3903 35.7883 31.0588L35.768 31.0723ZM36.0951 32.2072H36.0707C36.0707 32.4815 36.0169 32.7526 35.909 33.0208L35.9315 33.0299L35.9541 33.039C36.0643 32.7653 36.1194 32.488 36.1194 32.2072H36.0951ZM35.9315 33.0299L35.909 33.0207C35.8013 33.2851 35.6096 33.5836 35.333 33.9163L35.3517 33.9318L35.3704 33.9474C35.6488 33.6127 35.8438 33.3098 35.9541 33.0391L35.9315 33.0299ZM35.3517 33.9318L35.3331 33.9162C35.0566 34.2454 34.6643 34.6393 34.1559 35.0982L34.1722 35.1163L34.1885 35.1343C34.6978 34.6747 35.0918 34.2791 35.3704 33.9475L35.3517 33.9318ZM34.1722 35.1163L34.1552 35.0989L33.0749 36.1544L33.0919 36.1718L33.1089 36.1893L34.1893 35.1337L34.1722 35.1163ZM33.0919 36.1718H33.0675V36.2264H33.0919H33.1162V36.1718H33.0919ZM33.0919 36.2264V36.2507H36.1942V36.2264V36.202H33.0919V36.2264ZM36.1942 36.2264H36.1699V37.5H36.1942H36.2185V36.2264H36.1942ZM36.1942 37.5V37.4757H30.9312V37.5V37.5243H36.1942V37.5ZM36.7294 36.2016H36.7051V36.2259H36.7294V36.2016ZM36.7294 34.9775L36.7051 34.9621V34.9775H36.7294ZM39.807 30.1159V30.0915H39.7936L39.7864 30.1029L39.807 30.1159ZM40.8675 30.1159H40.8918V30.0915H40.8675V30.1159ZM40.8675 31.8207V31.845H40.8918V31.8207H40.8675ZM40.2381 31.8207V31.7963H40.2247L40.2175 31.8077L40.2381 31.8207ZM38.2954 34.8933L38.2711 34.8779V34.8933H38.2954ZM38.2954 34.9527H38.2711V34.9771H38.2954V34.9527ZM42.6813 34.9527H42.7057V34.9284H42.6813V34.9527ZM42.6813 36.2016V36.2259H42.7057V36.2016H42.6813ZM40.2679 37.5H40.2435V37.5243H40.2679V37.5ZM40.2679 35.8299L40.2435 35.8286V35.8299H40.2679ZM40.2976 35.2798L40.3219 35.2811V35.2798H40.2976ZM40.2976 30.1159V30.0915H40.2732V30.1159H40.2976ZM41.7645 30.1159H41.7888V30.0915H41.7645V30.1159ZM41.7645 37.5V37.5243H41.7888V37.5H41.7645ZM36.7294 36.2016H36.7538V34.9775H36.7294H36.7051V36.2016H36.7294ZM36.7294 34.9775L36.75 34.9905L39.8275 30.1289L39.807 30.1159L39.7864 30.1029L36.7089 34.9645L36.7294 34.9775ZM39.807 30.1159V30.1402H40.8675V30.1159V30.0915H39.807V30.1159ZM40.8675 30.1159H40.8432V31.8207H40.8675H40.8918V30.1159H40.8675ZM40.8675 31.8207V31.7963H40.2381V31.8207V31.845H40.8675V31.8207ZM40.2381 31.8207L40.2175 31.8077L38.2749 34.8802L38.2954 34.8933L38.316 34.9063L40.2587 31.8337L40.2381 31.8207ZM38.2954 34.8933H38.2711V34.9527H38.2954H38.3198V34.8933H38.2954ZM38.2954 34.9527V34.9771H42.6813V34.9527V34.9284H38.2954V34.9527ZM42.6813 34.9527H42.657V36.2016H42.6813H42.7057V34.9527H42.6813ZM42.6813 36.2016V36.1772H36.7294V36.2016V36.2259H42.6813V36.2016ZM40.2679 37.5H40.2922V35.8299H40.2679H40.2435V37.5H40.2679ZM40.2679 35.8299L40.2922 35.8312L40.3219 35.2811L40.2976 35.2798L40.2733 35.2785L40.2435 35.8286L40.2679 35.8299ZM40.2976 35.2798H40.3219V30.1159H40.2976H40.2732V35.2798H40.2976ZM40.2976 30.1159V30.1402H41.7645V30.1159V30.0915H40.2976V30.1159ZM41.7645 30.1159H41.7402V37.5H41.7645H41.7888V30.1159H41.7645ZM41.7645 37.5V37.4757H40.2679V37.5V37.5243H41.7645V37.5Z" fill="white" mask="url(#path-3-outside-1_496_54)"></path><mask id="path-5-outside-2_496_54" maskUnits="userSpaceOnUse" x="45.7242" y="41.3411" width="6" height="9" fill="black"><rect fill="white" x="45.7242" y="41.3411" width="6" height="9"></rect><path d="M46.4477 49.3411L49.5054 43.2851V43.2355H45.9422V41.9569H51.126V43.2554L48.0633 49.3411H46.4477Z"></path></mask><path d="M46.4477 49.3411L49.5054 43.2851V43.2355H45.9422V41.9569H51.126V43.2554L48.0633 49.3411H46.4477Z" fill="white"></path><path d="M46.4477 49.3411L46.426 49.3301L46.4081 49.3654H46.4477V49.3411ZM49.5054 43.2851L49.5298 43.2974V43.2851H49.5054ZM49.5054 43.2355H49.5298V43.2112H49.5054V43.2355ZM45.9422 43.2355H45.9179V43.2599H45.9422V43.2355ZM45.9422 41.9569V41.9326H45.9179V41.9569H45.9422ZM51.126 41.9569H51.1503V41.9326H51.126V41.9569ZM51.126 43.2554L51.1503 43.2676V43.2554H51.126ZM48.0633 49.3411V49.3654H48.0783L48.085 49.352L48.0633 49.3411ZM46.4477 49.3411L46.4694 49.352L49.5271 43.2961L49.5054 43.2851L49.4837 43.2741L46.426 49.3301L46.4477 49.3411ZM49.5054 43.2851H49.5298V43.2355H49.5054H49.4811V43.2851H49.5054ZM49.5054 43.2355V43.2112H45.9422V43.2355V43.2599H49.5054V43.2355ZM45.9422 43.2355H45.9666V41.9569H45.9422H45.9179V43.2355H45.9422ZM45.9422 41.9569V41.9813H51.126V41.9569V41.9326H45.9422V41.9569ZM51.126 41.9569H51.1016V43.2554H51.126H51.1503V41.9569H51.126ZM51.126 43.2554L51.1042 43.2444L48.0415 49.3301L48.0633 49.3411L48.085 49.352L51.1477 43.2663L51.126 43.2554ZM48.0633 49.3411V49.3167H46.4477V49.3411V49.3654H48.0633V49.3411Z" fill="white" mask="url(#path-5-outside-2_496_54)"></path><line x1="49.6471" y1="33.1832" x2="36.1145" y2="46.7158" stroke="white" stroke-width="0.779074"></line><path d="M38.706 22.2792C38.1446 22.3147 37.6332 22.212 37.1718 21.9712C36.7103 21.7303 36.3366 21.3679 36.0506 20.884C35.7644 20.3972 35.5994 19.8073 35.5556 19.1144C35.5114 18.4156 35.6006 17.8082 35.8234 17.2921C36.0489 16.7729 36.3738 16.3649 36.7983 16.0679C37.2257 15.7708 37.7201 15.6045 38.2815 15.569C38.6265 15.5472 38.9527 15.5764 39.2602 15.6568C39.5706 15.737 39.8516 15.8645 40.1034 16.0394C40.3552 16.2143 40.5672 16.4342 40.7396 16.6993C40.9149 16.9641 41.0398 17.2688 41.1145 17.6134L40.1233 17.6761C40.0718 17.4651 39.9883 17.2825 39.8729 17.1284C39.7602 16.9711 39.6243 16.8417 39.4652 16.7402C39.3089 16.6356 39.1354 16.5615 38.9448 16.5178C38.7569 16.471 38.5591 16.4541 38.3515 16.4672C37.9773 16.4909 37.6456 16.6073 37.3565 16.8164C37.0701 17.0224 36.8523 17.3151 36.7031 17.6944C36.5566 18.0706 36.5001 18.5233 36.5336 19.0525C36.5673 19.5847 36.6819 20.028 36.8775 20.3826C37.073 20.7342 37.3257 20.9942 37.6358 21.1624C37.9459 21.3307 38.2866 21.4031 38.6579 21.3796C38.8655 21.3664 39.0596 21.3263 39.2403 21.2591C39.421 21.1919 39.5839 21.0979 39.7289 20.9772C39.8739 20.8564 39.9926 20.7139 40.0849 20.5495C40.18 20.3821 40.2413 20.1918 40.269 19.9787L41.2601 19.916C41.231 20.2437 41.1489 20.5468 41.0139 20.8254C40.8786 21.1011 40.6988 21.3444 40.4744 21.5553C40.2498 21.7632 39.9888 21.9309 39.6916 22.0583C39.3942 22.1828 39.0657 22.2565 38.706 22.2792ZM49.2622 16.8083L50.1957 17.1342L48.7764 21.2002C48.6258 21.6317 48.3897 21.9791 48.0682 22.2423C47.7504 22.5037 47.3742 22.6657 46.9397 22.7281C46.5062 22.7878 46.0419 22.7312 45.5468 22.5584C45.0544 22.3865 44.6557 22.1419 44.3508 21.8244C44.0495 21.5051 43.8545 21.1438 43.7656 20.7404C43.6805 20.3353 43.7133 19.9169 43.8639 19.4854L45.2833 15.4194L46.2168 15.7453L44.8235 19.7366C44.726 20.016 44.7 20.2862 44.7454 20.5472C44.7946 20.8064 44.9108 21.0378 45.0942 21.2414C45.2803 21.446 45.5297 21.6029 45.8422 21.712C46.1575 21.8221 46.4503 21.8544 46.7206 21.8092C46.9909 21.7639 47.2245 21.6546 47.4215 21.4813C47.6223 21.3062 47.7714 21.079 47.8689 20.7997L49.2622 16.8083ZM51.6761 25.2641C51.3085 24.9413 51.0396 24.6037 50.8693 24.2515C50.7032 23.899 50.639 23.5481 50.6765 23.199C50.7141 22.8499 50.8546 22.519 51.0979 22.2064L51.8442 22.8617C51.703 23.0536 51.6297 23.2524 51.6244 23.4583C51.6232 23.6639 51.6778 23.8659 51.7882 24.0642C51.8987 24.2626 52.0497 24.4459 52.2412 24.6141C52.4503 24.7977 52.6664 24.929 52.8895 25.008C53.1126 25.0869 53.3226 25.1076 53.5194 25.0699C53.7204 25.0319 53.8914 24.9326 54.0326 24.7719C54.1602 24.6266 54.2227 24.471 54.2203 24.3051C54.22 24.1411 54.1756 23.9676 54.0869 23.7844C54.0001 23.599 53.889 23.4059 53.7535 23.205L53.3148 22.5391C53.0114 22.0854 52.837 21.6535 52.7917 21.2433C52.7484 20.831 52.8765 20.4542 53.1762 20.113C53.4256 19.829 53.719 19.648 54.0565 19.5701C54.3962 19.4941 54.7482 19.5128 55.1126 19.6262C55.4812 19.7393 55.8295 19.9399 56.1575 20.2279C56.4921 20.5218 56.7337 20.8393 56.8825 21.1805C57.0354 21.5214 57.0957 21.859 57.0634 22.1932C57.0352 22.5272 56.9094 22.8281 56.6859 23.0959L55.9661 22.4637C56.1388 22.2138 56.1878 21.9449 56.1131 21.657C56.0406 21.3711 55.8623 21.1034 55.5784 20.854C55.3803 20.68 55.1783 20.5592 54.9726 20.4916C54.771 20.4237 54.5811 20.409 54.403 20.4476C54.2271 20.488 54.0763 20.5798 53.9506 20.7229C53.8153 20.877 53.7524 21.044 53.762 21.224C53.7738 21.4059 53.8228 21.5854 53.9091 21.7625C53.9994 21.9394 54.093 22.1014 54.1897 22.2488L54.5554 22.798C54.6769 22.9749 54.7912 23.1689 54.8983 23.3799C55.0054 23.5909 55.082 23.8123 55.1282 24.0438C55.1785 24.2752 55.1769 24.5078 55.1236 24.7417C55.0744 24.9753 54.9522 25.2033 54.7569 25.4256C54.5153 25.7008 54.2272 25.8845 53.8927 25.9767C53.5602 26.0668 53.2034 26.0557 52.8225 25.9434C52.4435 25.8289 52.0613 25.6025 51.6761 25.2641ZM60.0994 24.9577L60.8483 24.5597L63.2284 29.0378L62.4795 29.4358L61.5225 27.6353L56.4895 30.3103L56.0275 29.441L61.0605 26.766L60.0994 24.9577ZM58.5789 36.0149C58.5232 35.4551 58.6074 34.9403 58.8315 34.4705C59.0556 34.0007 59.4041 33.6127 59.8771 33.3066C60.353 33.0001 60.9364 32.8125 61.6273 32.7438C62.3241 32.6744 62.9345 32.7432 63.4585 32.9501C63.9855 33.1568 64.4051 33.4683 64.7174 33.8847C65.0297 34.3012 65.2137 34.7893 65.2694 35.349C65.3257 35.9146 65.2417 36.4308 65.0173 36.8977C64.7929 37.3646 64.4426 37.7498 63.9664 38.0533C63.4934 38.3595 62.9086 38.5473 62.2118 38.6166C61.518 38.6856 60.909 38.6167 60.385 38.4098C59.8612 38.2058 59.4433 37.897 59.1313 37.4835C58.8193 37.07 58.6351 36.5804 58.5789 36.0149ZM59.4753 35.9256C59.5127 36.3017 59.6394 36.6277 59.8553 36.9036C60.0712 37.1794 60.3697 37.3838 60.751 37.5166C61.1325 37.6523 61.5871 37.6939 62.1147 37.6414C62.6453 37.5886 63.0843 37.4581 63.4316 37.2498C63.7821 37.0442 64.0359 36.7849 64.1932 36.4718C64.3505 36.1588 64.4104 35.8143 64.373 35.4382C64.3359 35.0651 64.2092 34.7391 63.993 34.4603C63.7771 34.1844 63.477 33.9788 63.0925 33.8433C62.711 33.7076 62.255 33.6661 61.7244 33.7189C61.1967 33.7714 60.7592 33.9018 60.4119 34.1101C60.0646 34.3184 59.8124 34.579 59.6551 34.892C59.4981 35.2079 59.4382 35.5525 59.4753 35.9256ZM65.6796 42.6211L65.2784 43.7563L59.7862 44.0244L59.7613 44.0948L63.8637 47.7588L63.4565 48.9107L57.283 46.7286L57.6052 45.817L62.0717 47.3957L62.0922 47.3377L58.2798 43.9347L58.5405 43.1972L63.6413 42.968L63.6619 42.91L59.1912 41.3298L59.5061 40.439L65.6796 42.6211ZM56.9532 48.6424L61.757 53.0919L58.9649 56.1064L58.3427 55.53L60.4629 53.241L59.0153 51.9002L57.0444 54.028L56.4254 53.4547L58.3963 51.3268L56.9036 49.9442L54.7625 52.2558L54.1402 51.6795L56.9532 48.6424ZM52.8671 53.3947L55.8035 59.2472L53.7139 60.2956C53.2609 60.5229 52.8457 60.6329 52.4684 60.6255C52.0923 60.6208 51.7601 60.5171 51.4715 60.3144C51.1843 60.1144 50.9501 59.8337 50.7687 59.4723C50.5901 59.1162 50.507 58.7645 50.5196 58.4173C50.5323 58.0701 50.6517 57.7463 50.8779 57.4459C51.1016 57.1469 51.4412 56.8831 51.8968 56.6545L53.4719 55.8642L53.8503 56.6183L52.3577 57.3672C52.067 57.5131 51.8537 57.6726 51.7177 57.8457C51.579 58.0201 51.5079 58.205 51.5042 58.4002C51.498 58.5967 51.55 58.805 51.6604 59.0249C51.772 59.2475 51.9098 59.4177 52.0738 59.5354C52.239 59.6557 52.4337 59.7137 52.6577 59.7094C52.8805 59.7091 53.1372 59.6361 53.4278 59.4902L54.5394 58.9325L51.9833 53.8381L52.8671 53.3947ZM49.5363 55.0659L52.2805 56.9979L51.3025 57.4886L48.5307 55.5704L49.5363 55.0659ZM40.9103 56.9859C41.3954 57.0498 41.8066 57.1808 42.1439 57.3789C42.478 57.5795 42.7265 57.8353 42.8895 58.1464C43.0524 58.4574 43.1196 58.8105 43.0912 59.2057L42.1066 59.076C42.1172 58.8381 42.0675 58.6321 41.9575 58.458C41.8441 58.2865 41.6864 58.149 41.4843 58.0455C41.2823 57.9421 41.0549 57.8737 40.8022 57.8404C40.5262 57.8041 40.2736 57.8151 40.0443 57.8736C39.8149 57.932 39.629 58.0316 39.4863 58.1724C39.3404 58.3157 39.2534 58.4934 39.2255 58.7054C39.2003 58.8971 39.2348 59.0612 39.3291 59.1978C39.4205 59.3339 39.554 59.4534 39.7295 59.5564C39.9047 59.6622 40.1045 59.7609 40.3288 59.8525L41.0637 60.162C41.5682 60.3703 41.9533 60.6323 42.219 60.9481C42.4844 61.2667 42.5874 61.6511 42.5281 62.1013C42.4787 62.476 42.3355 62.7896 42.0984 63.042C41.8583 63.2941 41.5553 63.4743 41.1894 63.5827C40.8202 63.6937 40.4192 63.7206 39.9864 63.6636C39.5449 63.6055 39.1675 63.476 38.8541 63.2751C38.5374 63.0768 38.2996 62.8298 38.1406 62.534C37.9783 62.2408 37.9155 61.9208 37.9523 61.574L38.9021 61.6991C38.8976 62.0028 39.0064 62.2536 39.2286 62.4513C39.4478 62.6486 39.7448 62.7719 40.1195 62.8213C40.3809 62.8557 40.6159 62.8438 40.8245 62.7856C41.0299 62.7299 41.1958 62.6365 41.3224 62.5054C41.4461 62.374 41.5204 62.2139 41.5453 62.0251C41.572 61.8217 41.5314 61.6479 41.4233 61.5037C41.3124 61.3591 41.1718 61.2371 41.0017 61.1379C40.8283 61.0412 40.6604 60.9585 40.498 60.8898L39.8887 60.6367C39.6893 60.5572 39.4865 60.4596 39.2801 60.3438C39.0737 60.2279 38.887 60.0866 38.7198 59.9198C38.5494 59.7555 38.4213 59.5613 38.3356 59.3373C38.2465 59.1158 38.2214 58.8583 38.26 58.5649C38.3078 58.2019 38.4451 57.889 38.6717 57.6263C38.898 57.3665 39.2007 57.1774 39.5798 57.0589C39.9585 56.9433 40.402 56.9189 40.9103 56.9859ZM29.7421 60.4112L28.8841 59.9198L31.0243 56.1826C31.2514 55.786 31.5472 55.4878 31.9115 55.2879C32.2718 55.0891 32.6712 54.9988 33.1098 55.017C33.5469 55.0378 33.993 55.1785 34.4481 55.4391C34.9006 55.6983 35.2477 56.0118 35.4894 56.3798C35.727 56.7489 35.8526 57.1398 35.866 57.5526C35.8754 57.9665 35.7666 58.3718 35.5394 58.7684L33.3992 62.5056L32.5412 62.0142L34.6421 58.3456C34.7892 58.0889 34.8643 57.828 34.8674 57.5631C34.8666 57.2993 34.7947 57.0505 34.6517 56.8167C34.5062 56.5815 34.2898 56.3816 34.0026 56.2171C33.7127 56.0511 33.4308 55.9656 33.1569 55.9606C32.8829 55.9556 32.6332 56.0203 32.4077 56.1545C32.1783 56.2898 31.9901 56.4859 31.843 56.7426L29.7421 60.4112ZM30.1703 53.4261L25.0365 57.4903L23.5854 55.6573C23.2708 55.2599 23.0834 54.8721 23.0231 54.4939C22.9605 54.1175 23.0037 53.7638 23.1527 53.4328C23.2994 53.1037 23.5301 52.8145 23.8448 52.5654C24.1595 52.3163 24.495 52.1572 24.8513 52.0881C25.2054 52.0208 25.5604 52.061 25.9166 52.2088C26.2686 52.3561 26.6028 52.6296 26.9192 53.0293L27.9121 54.2834L27.2574 54.8017L26.3219 53.6199C26.12 53.3649 25.9136 53.1939 25.7027 53.1068C25.4899 53.0174 25.2795 52.9971 25.0716 53.0459C24.8595 53.0942 24.657 53.1948 24.464 53.3475C24.2688 53.5021 24.1256 53.6752 24.0345 53.8669C23.9392 54.0582 23.9119 54.2667 23.9523 54.4924C23.9928 54.7182 24.114 54.9586 24.3158 55.2136L25.0878 56.1886L29.5566 52.6508L30.1703 53.4261ZM25.9264 48.4681L19.6727 50.4086L18.9798 48.1758C18.8296 47.6917 18.7946 47.2624 18.8747 46.8878C18.952 46.5142 19.1198 46.1998 19.3781 45.9448C19.6336 45.6907 19.953 45.5042 20.3363 45.3852C20.7197 45.2663 21.09 45.2388 21.4472 45.3028C21.8017 45.3676 22.1184 45.5332 22.3973 45.7994C22.6726 46.0637 22.8858 46.4392 23.0368 46.9261L23.5109 48.4539L22.7134 48.7013L22.2667 47.2617C22.1704 46.9511 22.0395 46.7172 21.8741 46.5599C21.7079 46.3998 21.519 46.3051 21.3074 46.2756C21.0921 46.2443 20.867 46.265 20.632 46.338C20.3941 46.4118 20.1982 46.5217 20.0441 46.6676C19.8863 46.8117 19.7856 46.9963 19.742 47.2215C19.6984 47.4467 19.7247 47.7146 19.8211 48.0251L20.1897 49.2129L25.6333 47.5238L25.9264 48.4681ZM24.0846 39.7242C24.0349 40.2845 23.8562 40.7745 23.5483 41.1942C23.2405 41.614 22.8257 41.9301 22.3039 42.1427C21.7792 42.355 21.171 42.4304 20.4794 42.3691C19.7819 42.3072 19.1951 42.1257 18.7189 41.8247C18.2397 41.5233 17.8856 41.139 17.6564 40.6716C17.4273 40.2042 17.3376 39.6904 17.3873 39.1301C17.4375 38.5639 17.6164 38.0724 17.924 37.6556C18.2315 37.2388 18.6476 36.9257 19.172 36.7163C19.6938 36.5038 20.3034 36.4284 21.0009 36.4903C21.6954 36.5519 22.2808 36.7333 22.7571 37.0343C23.2336 37.3325 23.5865 37.7138 23.8159 38.1783C24.0453 38.6427 24.1349 39.158 24.0846 39.7242ZM23.1873 39.6446C23.2207 39.2681 23.1571 38.9242 22.9964 38.6129C22.8358 38.3016 22.5806 38.0451 22.2309 37.8435C21.8814 37.639 21.4425 37.5133 20.9143 37.4664C20.3832 37.4193 19.9276 37.4657 19.5475 37.6055C19.1648 37.7421 18.867 37.9496 18.6541 38.2277C18.4412 38.5059 18.318 38.8332 18.2847 39.2097C18.2515 39.5832 18.3151 39.9271 18.4755 40.2413C18.6361 40.5526 18.8926 40.8107 19.2451 41.0155C19.5946 41.22 20.0349 41.3458 20.566 41.3929C21.0942 41.4398 21.5483 41.3933 21.9284 41.2535C22.3084 41.1137 22.6049 40.9047 22.8178 40.6265C23.031 40.3454 23.1541 40.0181 23.1873 39.6446ZM24.13 34.9187L18.318 31.9029L19.3948 29.8278C19.6282 29.3779 19.8999 29.0452 20.2097 28.8297C20.517 28.6129 20.8469 28.5019 21.1994 28.4967C21.5494 28.4901 21.9038 28.58 22.2627 28.7662C22.6163 28.9497 22.8899 29.1857 23.0835 29.4743C23.277 29.7629 23.3703 30.0951 23.3633 30.4711C23.3577 30.8444 23.2375 31.2574 23.0027 31.7098L22.1911 33.274L21.4422 32.8854L22.2113 31.4031C22.3611 31.1145 22.4403 30.8602 22.4488 30.6402C22.4587 30.4175 22.4078 30.2261 22.2962 30.0659C22.186 29.9031 22.0216 29.765 21.8032 29.6516C21.5822 29.5369 21.3707 29.4801 21.1689 29.481C20.9645 29.4805 20.7729 29.5477 20.5939 29.6826C20.4138 29.8136 20.2488 30.0234 20.099 30.312L19.5262 31.4159L24.5854 34.0411L24.13 34.9187ZM25.8464 31.611L22.4905 31.6569L22.9945 30.6857L26.3645 30.6124L25.8464 31.611ZM22.9567 24.8524L22.3518 24.2579L25.9063 20.6408L26.5112 21.2353L25.082 22.6897L29.1474 26.6846L28.4574 27.3867L24.3921 23.3918L22.9567 24.8524Z" fill="white"></path></g><defs><filter id="filter0_d_496_54" x="0" y="0" width="87" height="87" filterUnits="userSpaceOnUse" color-interpolation-filters="sRGB"><feFlood flood-opacity="0" result="BackgroundImageFix"></feFlood><feColorMatrix in="SourceAlpha" type="matrix" values="0 0 0 0 0 0 0 0 0 0 0 0 0 0 0 0 0 0 127 0" result="hardAlpha"></feColorMatrix><feOffset dx="2" dy="4"></feOffset><feGaussianBlur stdDeviation="7"></feGaussianBlur><feComposite in2="hardAlpha" operator="out"></feComposite><feColorMatrix type="matrix" values="0 0 0 0 0.219332 0 0 0 0 0.214193 0 0 0 0 0.22352 0 0 0 0.24 0"></feColorMatrix><feBlend mode="normal" in2="BackgroundImageFix" result="effect1_dropShadow_496_54"></feBlend><feBlend mode="normal" in="SourceGraphic" in2="effect1_dropShadow_496_54" result="shape"></feBlend></filter></defs></svg>