<svg width="12" height="12" viewBox="0 0 12 12" fill="none"><path d="M7.75 3.08333V11.25M9.5 5.41667H9.50583M9.5 7.16667H9.50583M9.5 8.91667H9.50583M8.91667 0.75L6 3.08333L3.08333 0.75M3.55 11.25H8.45C9.43012 11.25 9.92012 11.25 10.2945 11.0592C10.6238 10.8915 10.8915 10.6238 11.0592 10.2945C11.25 9.92012 11.25 9.43012 11.25 8.45V5.88333C11.25 4.90322 11.25 4.41319 11.0592 4.03885C10.8915 3.70956 10.6238 3.44185 10.2945 3.27407C9.92012 3.08333 9.43012 3.08333 8.45 3.08333H3.55C2.56991 3.08333 2.07986 3.08333 1.70552 3.27407C1.37623 3.44185 1.10852 3.70956 0.940738 4.03885C0.75 4.41319 0.75 4.90322 0.75 5.88333V8.45C0.75 9.43012 0.75 9.92012 0.940738 10.2945C1.10852 10.6238 1.37623 10.8915 1.70552 11.0592C2.07986 11.25 2.56991 11.25 3.55 11.25Z" stroke="white" stroke-linecap="round" stroke-linejoin="round"></path></svg>