<svg xmlns="http://www.w3.org/2000/svg" width="42" height="43" viewBox="0 0 42 43" fill="none">
<path fill-rule="evenodd" clip-rule="evenodd" d="M35.063 0.98242C33.973 1.00865 32.8775 1.29864 31.8725 1.87889C28.6565 3.7357 27.5431 7.8943 29.3999 11.1103C29.4309 11.164 29.4644 11.216 29.4965 11.2686L21.5306 18.6602C19.2838 16.9903 16.5055 16.0001 13.5004 16.0001C12.6475 16.0001 11.8139 16.0821 11.0043 16.2344L8.52575 10.3604C10.5171 8.76971 11.113 5.89095 9.80309 3.62213C8.36044 1.12337 5.12121 0.257588 2.62245 1.70025C0.123676 3.14292 -0.745046 6.37922 0.697624 8.87798C1.75077 10.7021 3.76184 11.6581 5.74255 11.4795L8.12147 17.1221C3.34922 19.2067 0.000380847 23.9726 0.000380847 29.5001C0.000365847 33.7063 1.93933 37.4716 4.96911 39.9503C5.14796 40.2032 5.40074 40.3946 5.69274 40.4981C7.89962 42.0702 10.5934 43.0001 13.5004 43.0001C16.5078 43.0001 19.2888 42.0092 21.5365 40.337C21.6631 40.2652 21.7785 40.1754 21.8792 40.0703C23.1985 39.022 24.3166 37.7334 25.1693 36.2705L31.5033 37.7149C31.4943 38.622 31.7146 39.5414 32.1976 40.3779C33.6403 42.8767 36.8795 43.7425 39.3783 42.2998C41.877 40.8571 42.7457 37.6208 41.3031 35.1221C39.8604 32.6233 36.6212 31.7546 34.1224 33.1973C33.3994 33.6147 32.8156 34.1842 32.3822 34.8408L26.3997 33.4727C26.7882 32.2157 27.0003 30.882 27.0003 29.5C27.0003 28.9442 26.9636 28.3978 26.8978 27.8594L32.2005 26.9189C33.6435 29.4154 36.8806 30.2828 39.3782 28.8408C41.877 27.3982 42.7428 24.1589 41.3001 21.6602C39.8574 19.1614 36.6211 18.2956 34.1224 19.7383C32.5407 20.6515 31.6143 22.2831 31.512 23.9922L26.2034 24.9355C25.64 23.3747 24.7963 21.9462 23.7337 20.7109L31.6028 13.4072C33.6648 14.7237 36.3751 14.8838 38.6282 13.583C41.8443 11.7262 42.9606 7.57056 41.1038 4.35449C39.8273 2.14346 37.4608 0.924674 35.063 0.98242ZM35.1538 3.96776C36.4846 3.93011 37.7862 4.60877 38.5054 5.85448C39.5515 7.66644 38.9404 9.93823 37.1285 10.9844C35.3165 12.0305 33.0447 11.4223 31.9986 9.61034C30.9524 7.79839 31.5606 5.52366 33.3726 4.47753C33.9388 4.15061 34.5489 3.98487 35.1538 3.96776ZM5.19485 3.98826C5.99399 3.9632 6.77304 4.36948 7.20755 5.12206C7.83956 6.21674 7.47313 7.57208 6.37845 8.20409C5.28378 8.8361 3.92845 8.47259 3.29644 7.37792C2.66443 6.28326 3.02792 4.93083 4.12259 4.29882C4.46468 4.10131 4.8316 3.99963 5.19485 3.98826ZM13.5005 19C19.3173 19 24.0005 23.6832 24.0005 29.5C24.0005 32.1623 23.0178 34.5846 21.396 36.4316C20.481 34.7651 19.054 33.4187 17.3296 32.6055C18.653 31.5019 19.5005 29.8443 19.5005 28C19.5005 24.7041 16.7965 22 13.5005 22C10.2046 22 7.50052 24.7041 7.50052 28C7.50052 29.8443 8.34809 31.5019 9.67144 32.6054C7.94735 33.4191 6.51985 34.7648 5.60501 36.4316C3.98326 34.5846 3.0005 32.1623 3.00052 29.5C3.00052 23.6832 7.68376 19 13.5005 19ZM36.6949 22.0264C37.4933 22.0017 38.2701 22.4076 38.7046 23.1601C39.3366 24.2548 38.9731 25.6102 37.8784 26.2422C36.7838 26.8742 35.4284 26.5107 34.7964 25.416C34.1644 24.3213 34.5279 22.966 35.6226 22.334C35.9647 22.1365 36.332 22.0375 36.6949 22.0264ZM13.5005 25C15.1751 25 16.5005 26.3254 16.5005 28C16.5005 29.6746 15.1751 31 13.5005 31C11.8259 31 10.5005 29.6746 10.5005 28C10.5005 26.3254 11.8259 25 13.5005 25ZM13.5005 34.75C16.0067 34.75 18.1345 36.2714 19.0377 38.4326C17.432 39.4274 15.5359 40 13.5005 40C11.4652 40 9.56912 39.4273 7.96343 38.4326C8.86648 36.2715 10.9948 34.75 13.5005 34.75ZM36.6949 35.4853C37.4933 35.4607 38.2701 35.8695 38.7046 36.6221C39.3367 37.7167 38.9731 39.0721 37.8785 39.7041C36.7838 40.3361 35.4284 39.9726 34.7964 38.8779C34.1644 37.7833 34.5279 36.4279 35.6226 35.7959C35.9647 35.5984 36.3319 35.4965 36.6949 35.4853Z" fill="black"/>
</svg>