<svg width="20" height="20" viewBox="0 0 20 20" fill="none" class="report-img"><rect width="20" height="20" rx="10" fill="transparent"></rect><path d="M10 14.5C8.85 14.5 7.84792 14.1188 6.99375 13.3563C6.13958 12.5938 5.65 11.6417 5.525 10.5H6.55C6.66667 11.3667 7.05208 12.0833 7.70625 12.65C8.36042 13.2167 9.125 13.5 10 13.5C10.975 13.5 11.8021 13.1604 12.4813 12.4813C13.1604 11.8021 13.5 10.975 13.5 10C13.5 9.025 13.1604 8.19792 12.4813 7.51875C11.8021 6.83958 10.975 6.5 10 6.5C9.425 6.5 8.8875 6.63333 8.3875 6.9C7.8875 7.16667 7.46667 7.53333 7.125 8H8.5V9H5.5V6H6.5V7.175C6.925 6.64167 7.44375 6.22917 8.05625 5.9375C8.66875 5.64583 9.31667 5.5 10 5.5C10.625 5.5 11.2104 5.61875 11.7562 5.85625C12.3021 6.09375 12.7771 6.41458 13.1813 6.81875C13.5854 7.22292 13.9062 7.69792 14.1438 8.24375C14.3813 8.78958 14.5 9.375 14.5 10C14.5 10.625 14.3813 11.2104 14.1438 11.7562C13.9062 12.3021 13.5854 12.7771 13.1813 13.1813C12.7771 13.5854 12.3021 13.9062 11.7562 14.1438C11.2104 14.3813 10.625 14.5 10 14.5ZM11.4 12.1L9.5 10.2V7.5H10.5V9.8L12.1 11.4L11.4 12.1Z" fill="currentColor"></path></svg>