<svg width="12" height="12" viewBox="0 0 12 12" fill="none" class="report-img"><g clip-path="url(#clip0_1061_12624)"><path fill-rule="evenodd" clip-rule="evenodd" d="M11.5 2C11.5 1.17157 10.8285 0.5 10 0.5H2C1.17158 0.5 0.5 1.17157 0.5 2V7C0.5 7.82845 1.17158 8.5 2 8.5H2.5C2.77614 8.5 3 8.27615 3 8C3 7.72385 2.77614 7.5 2.5 7.5H2C1.72386 7.5 1.5 7.27615 1.5 7V4H10.5V7C10.5 7.27615 10.2761 7.5 10 7.5H9.5C9.22385 7.5 9 7.72385 9 8C9 8.27615 9.22385 8.5 9.5 8.5H10C10.8285 8.5 11.5 7.82845 11.5 7V2ZM10.5 3V2C10.5 1.72386 10.2761 1.5 10 1.5H2C1.72386 1.5 1.5 1.72385 1.5 2V3H10.5Z" fill="currentColor"></path><path d="M6.49999 10.9999C6.49999 11.2761 6.27614 11.4999 5.99999 11.4999C5.72384 11.4999 5.49999 11.2761 5.49999 10.9999V8.20339L4.85356 8.84974C4.65828 9.04509 4.34172 9.04509 4.14644 8.84974C3.95119 8.65459 3.95119 8.33794 4.14644 8.14274L5.64619 6.64609C5.84149 6.45114 6.15779 6.45134 6.35294 6.64644L7.85249 8.14604C8.04779 8.34134 8.04779 8.65789 7.85249 8.85319C7.65724 9.04839 7.34064 9.04839 7.14539 8.85319L6.49999 8.20779V10.9999Z" fill="currentColor"></path></g><defs><clipPath id="clip0_1061_12624"><rect width="12" height="12" fill="white"></rect></clipPath></defs></svg>