<svg width="24" height="24" viewBox="0 0 18 18" fill="none" class="ip-event-icon">
    <path
        d="M17.9926 9.35884C17.9063 11.5409 17.0302 13.6976 15.3639 15.3639C13.6976 17.0301 11.5409 17.9063 9.35885 17.9926C9.17519 17.9999 8.9915 18.0018 8.80785 17.9977C6.56923 17.9503 4.34458 17.0724 2.63605 15.3639C0.927522 13.6553 0.0494934 11.4307 0.00210264 9.19206C-0.00194034 9.0084 -0.000112207 8.82471 0.00723546 8.64105C0.0935794 6.45901 0.96971 4.30231 2.63601 2.63604C4.30193 0.970087 6.45863 0.0936052 8.64068 0.0072965C8.82398 -5.1172e-05 9.00803 -0.0018793 9.19168 0.00216368C11.4307 0.0495544 13.6553 0.927513 15.3639 2.63604C17.0724 4.34457 17.9503 6.56922 17.9977 8.80784C18.0018 8.99149 18 9.17518 17.9926 9.35884Z"
        fill="#FCF6D6"></path>
    <path
        d="M6.43791 15.3642C2.92319 11.8495 2.92319 6.15096 6.43791 2.63627C7.70885 1.36534 9.26543 0.554247 10.901 0.202473C8.01355 -0.418563 4.87985 0.392458 2.63604 2.63627C-0.878679 6.15099 -0.878679 11.8495 2.63604 15.3642C4.87978 17.6079 8.01351 18.419 10.901 17.798C9.26543 17.4462 7.70885 16.6352 6.43791 15.3642Z"
        fill="#EAE3C5"></path>
    <path
        d="M9.19168 0.00209433V0.00318418C9.16964 2.44753 8.20498 4.74637 6.47551 6.47585C4.74603 8.20533 2.44754 9.16963 0.00284092 9.19203H0.00210264C-0.00194034 9.00837 -0.000112207 8.82468 0.00723546 8.64102C2.30315 8.6175 4.46133 7.71054 6.08611 6.08611C7.71051 4.46171 8.61751 2.30315 8.64064 0.00722715C8.82398 -8.53583e-05 9.00803 -0.00194864 9.19168 0.00209433Z"
        fill="#C1BBA0"></path>
    <path
        d="M17.9924 9.3588C15.6965 9.38232 13.538 10.2893 11.9135 11.9137C10.2888 13.5381 9.38179 15.6967 9.35862 17.9926C9.17497 17.9999 8.99127 18.0018 8.80762 17.9977V17.9974C8.82966 15.5523 9.79431 13.2535 11.5238 11.524C13.2533 9.7945 15.5521 8.82984 17.9968 8.8078H17.9975C18.0016 8.99146 17.9998 9.17515 17.9924 9.3588Z"
        fill="#C1BBA0"></path>
    <path
        d="M16.5796 10.2476C16.5205 10.2476 16.461 10.2287 16.4107 10.1895C16.2906 10.0961 16.269 9.92302 16.3624 9.80289C16.6284 9.46089 16.5666 8.96624 16.2246 8.70025C16.1044 8.60684 16.0828 8.43373 16.1762 8.3136C16.2696 8.19347 16.4427 8.17185 16.5629 8.26526C17.1447 8.71779 17.2499 9.55933 16.7974 10.1411C16.743 10.2111 16.6618 10.2476 16.5796 10.2476Z"
        fill="#EA5149"></path>
    <path
        d="M15.1887 10.5599C15.1434 10.5599 15.0975 10.5487 15.0551 10.5252C14.9221 10.4513 14.8742 10.2836 14.948 10.1506C15.0366 9.99113 15.0578 9.80677 15.0077 9.63138C14.9576 9.45602 14.8422 9.31068 14.6828 9.22209C14.5498 9.14823 14.5018 8.98046 14.5757 8.84746C14.6496 8.71443 14.8174 8.66651 14.9504 8.74041C15.2385 8.90048 15.447 9.16313 15.5375 9.48C15.6281 9.79686 15.5898 10.1301 15.4297 10.4181C15.3794 10.5087 15.2854 10.5599 15.1887 10.5599Z"
        fill="#EA5149"></path>
    <path
        d="M13.8595 11.1359C13.8306 11.1359 13.8013 11.1313 13.7723 11.1217C13.628 11.0736 13.55 10.9176 13.598 10.7732C13.6494 10.6193 13.6377 10.4546 13.5651 10.3094C13.4925 10.1643 13.3678 10.0561 13.2139 10.0048C13.0695 9.95667 12.9915 9.80068 13.0396 9.6563C13.0878 9.51198 13.2438 9.4339 13.3881 9.48206C13.6817 9.57994 13.9196 9.78627 14.058 10.063C14.1963 10.3398 14.2187 10.6539 14.1208 10.9475C14.0823 11.0629 13.9749 11.1359 13.8595 11.1359Z"
        fill="#EA5149"></path>
    <path
        d="M12.624 11.9785C12.6138 11.9785 12.6036 11.9779 12.5932 11.9767C12.442 11.9599 12.333 11.8237 12.3498 11.6725C12.3844 11.3616 12.1595 11.0805 11.8486 11.046C11.6974 11.0291 11.5884 10.8929 11.6052 10.7417C11.6221 10.5905 11.7585 10.4815 11.9095 10.4984C12.5224 10.5665 12.9656 11.1205 12.8975 11.7334C12.8818 11.8742 12.7625 11.9785 12.624 11.9785Z"
        fill="#EA5149"></path>
    <path
        d="M11.5722 13.0301C11.4337 13.0301 11.3144 12.9259 11.2987 12.785C11.2642 12.474 10.983 12.2493 10.6722 12.2837C10.5208 12.3005 10.3847 12.1916 10.3679 12.0403C10.3511 11.8891 10.4601 11.7529 10.6113 11.7361C11.2239 11.6681 11.7783 12.1112 11.8464 12.7241C11.8632 12.8754 11.7542 13.0115 11.603 13.0284C11.5926 13.0295 11.5823 13.0301 11.5722 13.0301Z"
        fill="#EA5149"></path>
    <path
        d="M10.7948 14.2014C10.6794 14.2014 10.572 14.1283 10.5335 14.0129C10.4822 13.859 10.374 13.7342 10.2288 13.6617C10.0837 13.5891 9.91898 13.5774 9.76506 13.6287C9.62075 13.6769 9.46469 13.5988 9.41656 13.4545C9.36843 13.3102 9.44648 13.1541 9.59083 13.106C9.88442 13.0081 10.1985 13.0305 10.4753 13.1689C10.7521 13.3072 10.9584 13.5451 11.0562 13.8387C11.1044 13.9831 11.0263 14.1391 10.882 14.1872C10.853 14.1968 10.8237 14.2014 10.7948 14.2014Z"
        fill="#EA5149"></path>
    <path
        d="M10.2586 15.4908C10.1618 15.4908 10.0679 15.4397 10.0175 15.349C9.92896 15.1896 9.78358 15.0742 9.60823 15.0241C9.4329 14.974 9.24847 14.9952 9.08904 15.0838C8.95597 15.1577 8.78824 15.1098 8.71441 14.9767C8.64051 14.8437 8.68843 14.676 8.82146 14.6021C9.10957 14.442 9.44267 14.4038 9.75964 14.4943C10.0765 14.5849 10.3392 14.7934 10.4992 15.0815C10.5731 15.2145 10.5252 15.3823 10.3922 15.4561C10.3498 15.4797 10.3039 15.4908 10.2586 15.4908Z"
        fill="#EA5149"></path>
    <path
        d="M9.9662 16.8612C9.88411 16.8612 9.80283 16.8247 9.74855 16.7548C9.48252 16.4128 8.98787 16.351 8.64587 16.617C8.5257 16.7104 8.35266 16.6888 8.25922 16.5687C8.16581 16.4486 8.18743 16.2755 8.30756 16.182C8.8894 15.7295 9.73093 15.8347 10.1834 16.4165C10.2768 16.5367 10.2552 16.7097 10.1351 16.8032C10.0849 16.8423 10.0253 16.8612 9.9662 16.8612Z"
        fill="#EA5149"></path>
    <path
        d="M9.51789 1.88256C9.4358 1.88256 9.35452 1.84599 9.3002 1.77617C9.17139 1.61052 8.98569 1.50491 8.77746 1.47889C8.56902 1.45281 8.36329 1.50948 8.19759 1.63836C8.07746 1.73177 7.90435 1.71015 7.81098 1.59002C7.71757 1.46989 7.73919 1.29685 7.85928 1.20337C8.14117 0.984137 8.49161 0.887808 8.84577 0.932105C9.20008 0.976402 9.51592 1.15602 9.73516 1.43786C9.82857 1.55799 9.80694 1.73107 9.68682 1.82451C9.63658 1.86361 9.57702 1.88256 9.51789 1.88256Z"
        fill="#EA5149"></path>
    <path
        d="M9.02034 3.45959C8.92352 3.45959 8.82961 3.40847 8.77923 3.31784C8.59639 2.98874 8.17996 2.8697 7.85076 3.05258C7.71769 3.12648 7.54996 3.07856 7.47613 2.94553C7.40223 2.8125 7.45015 2.64477 7.58318 2.57091C8.17792 2.24047 8.93055 2.45556 9.26095 3.05026C9.33484 3.18329 9.28693 3.35102 9.1539 3.42489C9.11153 3.44841 9.06562 3.45959 9.02034 3.45959Z"
        fill="#EA5149"></path>
    <path
        d="M8.25768 4.97505C8.1423 4.97505 8.03486 4.90206 7.99637 4.78661C7.94504 4.63266 7.83686 4.50789 7.69174 4.43536C7.54665 4.36277 7.38187 4.35109 7.22795 4.40242C7.08357 4.45055 6.92758 4.37251 6.87945 4.22819C6.83132 4.08384 6.90937 3.92781 7.05372 3.87968C7.34735 3.78181 7.66143 3.80417 7.93818 3.94254C8.21497 4.08092 8.42126 4.31882 8.51914 4.61241C8.56727 4.75676 8.48922 4.91279 8.34487 4.96092C8.31597 4.97048 8.28658 4.97505 8.25768 4.97505Z"
        fill="#EA5149"></path>
    <path
        d="M7.22846 6.39697C7.08994 6.39697 6.97062 6.29276 6.95498 6.15186C6.92042 5.84093 6.63952 5.61604 6.32842 5.6506C6.177 5.66733 6.04098 5.55842 6.02418 5.40721C6.00734 5.25597 6.11636 5.11977 6.2676 5.10297C6.88034 5.03491 7.43454 5.47812 7.50268 6.091C7.51952 6.24224 7.4105 6.37844 7.25929 6.39524C7.24888 6.39637 7.23858 6.39697 7.22846 6.39697Z"
        fill="#EA5149"></path>
    <path
        d="M5.99124 7.63474C5.98108 7.63474 5.97081 7.63418 5.96047 7.63302C5.80923 7.61618 5.70028 7.47998 5.71705 7.32878C5.73379 7.17817 5.69086 7.03005 5.59618 6.91168C5.50151 6.79335 5.36644 6.71895 5.21583 6.70222C5.06459 6.68542 4.95564 6.54922 4.97241 6.39798C4.98925 6.24674 5.12579 6.13786 5.27665 6.15459C5.57358 6.18757 5.83985 6.33417 6.02646 6.5675C6.21307 6.8008 6.29766 7.09274 6.26468 7.38967C6.24904 7.5305 6.12975 7.63474 5.99124 7.63474Z"
        fill="#EA5149"></path>
    <path
        d="M4.63392 8.59894C4.60506 8.59894 4.57567 8.59433 4.54673 8.58474C4.40238 8.53661 4.32437 8.38058 4.37246 8.23623C4.42379 8.08228 4.41209 7.91757 4.33952 7.77245C4.26693 7.62736 4.14223 7.51911 3.98828 7.46782C3.84392 7.41969 3.76591 7.26367 3.81401 7.11932C3.86214 6.975 4.01805 6.89695 4.16251 6.94505C4.4561 7.04292 4.694 7.24925 4.83238 7.526C4.97075 7.80275 4.99308 8.11688 4.89524 8.41047C4.85681 8.52595 4.74927 8.59894 4.63392 8.59894Z"
        fill="#EA5149"></path>
    <path
        d="M3.1574 9.32137C3.11216 9.32137 3.06624 9.31019 3.02385 9.28667C2.89081 9.21277 2.84293 9.04504 2.91679 8.91204C3.00535 8.75261 3.02655 8.56825 2.97645 8.39285C2.92636 8.21746 2.81097 8.07216 2.65154 7.98356C2.51851 7.9097 2.47059 7.74193 2.54449 7.60894C2.61839 7.47591 2.78612 7.42799 2.91912 7.50189C3.20722 7.66195 3.41573 7.92461 3.50626 8.24147C3.59682 8.55833 3.5585 8.89155 3.39844 9.17962C3.3482 9.27025 3.25426 9.32137 3.1574 9.32137Z"
        fill="#EA5149"></path>
    <path
        d="M1.60107 9.79922C1.54197 9.79922 1.48242 9.78027 1.43215 9.74118C1.31202 9.64777 1.2904 9.47466 1.38384 9.35453C1.51272 9.18887 1.56933 8.98293 1.54328 8.77466C1.51726 8.56639 1.41165 8.38077 1.24603 8.25189C1.1259 8.15848 1.10428 7.98537 1.19772 7.86524C1.2911 7.74511 1.46421 7.72349 1.58434 7.8169C1.86615 8.03613 2.0458 8.35198 2.0901 8.70628C2.13439 9.06059 2.03803 9.41092 1.8188 9.6928C1.76448 9.76266 1.6832 9.79922 1.60107 9.79922Z"
        fill="#EA5149"></path>
</svg>